<svg xmlns="http://www.w3.org/2000/svg" viewBox="0 0 100 100" width="100" height="100">
  <defs>
    <radialGradient id="flameGrad" cx="50%" cy="80%" r="60%">
      <stop offset="0%" stop-color="#F59E0B" />
      <stop offset="60%" stop-color="#D97706" />
      <stop offset="100%" stop-color="#B45309" />
    </radialGradient>
  </defs>
  <!-- Flame shape -->
  <path
    d="M50 10
       C50 10 65 28 68 40
       C71 52 62 55 60 48
       C60 48 70 62 65 75
       C62 83 55 88 50 90
       C45 88 38 83 35 75
       C30 62 40 48 40 48
       C38 55 29 52 32 40
       C35 28 50 10 50 10Z"
    fill="url(#flameGrad)"
  />
  <!-- Inner highlight -->
  <path
    d="M50 32
       C50 32 58 44 58 54
       C58 62 54 65 50 66
       C46 65 42 62 42 54
       C42 44 50 32 50 32Z"
    fill="#FCD34D"
    opacity="0.6"
  />
</svg>
